<svg width="24" height="24" viewBox="0 0 24 24" fill="none" xmlns="http://www.w3.org/2000/svg">
<path d="M11.421 7.78683C11.421 8.54583 10.7295 9.35808 9.83288 9.35808V22.1696C9.83288 23.9887 7.35413 23.9887 7.35413 22.1696V9.35808C6.48113 9.35808 5.72101 8.68571 5.72101 7.67846V0.627709C5.72101 0.014209 6.60751 -0.00904098 6.60751 0.651709V5.86346H7.35001V0.603709C7.35001 0.040084 8.20426 0.00408401 8.20426 0.627709V5.86383H8.97151V0.611209C8.97151 0.021709 9.80026 -0.00191601 9.80026 0.634459V5.86383H10.5551V0.611209C10.5551 0.027709 11.421 0.004834 11.421 0.634459V7.78721V7.78683ZM18.0334 2.26683V22.164C18.0334 23.9426 15.5494 23.9163 15.5494 22.164V14.2691H14.2271V2.26683C14.2271 -0.527291 18.0334 -0.527291 18.0334 2.26683Z" fill="white"/>
</svg>
