<svg width="18" height="18" viewBox="0 0 18 18" fill="none" xmlns="http://www.w3.org/2000/svg">
<path d="M9 18C13.9672 18 18 13.9672 18 9C18 4.03276 13.9672 0 9 0C4.03276 0 0 4.03276 0 9C0 13.9672 4.03276 18 9 18ZM10.7824 11.4293L5.70937 13.3805C5.02734 13.6441 4.35586 12.9727 4.61953 12.2906L6.5707 7.21758C6.68672 6.91875 6.91875 6.68672 7.21758 6.5707L12.2906 4.61953C12.9727 4.35586 13.6441 5.02734 13.3805 5.70937L11.4293 10.7824C11.3168 11.0813 11.0813 11.3133 10.7824 11.4293ZM10.125 9C10.125 8.3791 9.6209 7.875 9 7.875C8.3791 7.875 7.875 8.3791 7.875 9C7.875 9.6209 8.3791 10.125 9 10.125C9.6209 10.125 10.125 9.6209 10.125 9Z" fill="#9CA3AF"/>
</svg>
