<svg width="18" height="18" viewBox="0 0 18 18" fill="none" xmlns="http://www.w3.org/2000/svg">
<path d="M12.1289 1.37461L16.6219 5.92031C18.4641 7.78359 18.4641 10.7789 16.6219 12.6422L12.6844 16.6254C12.3574 16.9559 11.823 16.9594 11.4926 16.6324C11.1621 16.3055 11.1586 15.7711 11.4855 15.4406L15.4195 11.4574C16.6113 10.2516 16.6113 8.31445 15.4195 7.10859L10.9301 2.56289C10.6031 2.23242 10.6066 1.69805 10.9371 1.37109C11.2676 1.04414 11.802 1.04766 12.1289 1.37813V1.37461ZM0 8.06836V2.8125C0 1.88086 0.755859 1.125 1.6875 1.125H6.94336C7.54102 1.125 8.11406 1.36055 8.53594 1.78242L14.4422 7.68867C15.3211 8.56758 15.3211 9.99141 14.4422 10.8703L9.74883 15.5637C8.86992 16.4426 7.44609 16.4426 6.56719 15.5637L0.660937 9.65742C0.235547 9.23555 0 8.66602 0 8.06836ZM5.0625 5.0625C5.0625 4.4416 4.5584 3.9375 3.9375 3.9375C3.3166 3.9375 2.8125 4.4416 2.8125 5.0625C2.8125 5.6834 3.3166 6.1875 3.9375 6.1875C4.5584 6.1875 5.0625 5.6834 5.0625 5.0625Z" fill="#9CA3AF"/>
</svg>
