<svg width="22" height="21" viewBox="0 0 22 21" fill="none" xmlns="http://www.w3.org/2000/svg">
<path d="M13.7509 19.75V14.75C13.7509 14.4848 13.6456 14.2304 13.458 14.0429C13.2705 13.8554 13.0161 13.75 12.7509 13.75H8.75093C8.48571 13.75 8.23136 13.8554 8.04382 14.0429C7.85629 14.2304 7.75093 14.4848 7.75093 14.75V19.75M16.5249 9.06C16.3165 8.86044 16.039 8.74904 15.7504 8.74904C15.4618 8.74904 15.1844 8.86044 14.9759 9.06C14.5109 9.50352 13.893 9.75095 13.2504 9.75095C12.6078 9.75095 11.9899 9.50352 11.5249 9.06C11.3165 8.86073 11.0393 8.74952 10.7509 8.74952C10.4626 8.74952 10.1853 8.86073 9.97693 9.06C9.51189 9.50381 8.89376 9.75143 8.25093 9.75143C7.6081 9.75143 6.98997 9.50381 6.52493 9.06C6.31647 8.86044 6.03902 8.74904 5.75043 8.74904C5.46184 8.74904 5.18439 8.86044 4.97593 9.06C4.52677 9.48861 3.9342 9.73477 3.31356 9.75055C2.69291 9.76633 2.08859 9.55061 1.61823 9.14538C1.14787 8.74015 0.845126 8.17439 0.768914 7.55824C0.692702 6.94209 0.848481 6.31962 1.20593 5.812L4.09493 1.628C4.27824 1.35751 4.52502 1.13605 4.81371 0.982996C5.10239 0.829937 5.42418 0.74994 5.75093 0.75H15.7509C16.0767 0.749875 16.3976 0.829341 16.6857 0.981488C16.9738 1.13364 17.2203 1.35386 17.4039 1.623L20.2989 5.815C20.6565 6.32303 20.812 6.94597 20.7354 7.56244C20.6587 8.17891 20.3552 8.74475 19.8841 9.14969C19.413 9.55463 18.808 9.76968 18.187 9.75291C17.566 9.73614 16.9735 9.48877 16.5249 9.059" stroke="white" stroke-width="1.5" stroke-linecap="round" stroke-linejoin="round"/>
<path d="M2.75092 9.69995V17.75C2.75092 18.2804 2.96163 18.7891 3.3367 19.1642C3.71177 19.5392 4.22048 19.75 4.75092 19.75H16.7509C17.2813 19.75 17.7901 19.5392 18.1651 19.1642C18.5402 18.7891 18.7509 18.2804 18.7509 17.75V9.69995" stroke="white" stroke-width="1.5" stroke-linecap="round" stroke-linejoin="round"/>
</svg>
